<mxfile host="Electron" agent="Mozilla/5.0 (Macintosh; Intel Mac OS X 10_15_7) AppleWebKit/537.36 (KHTML, like Gecko) draw.io/24.7.8 Chrome/128.0.6613.36 Electron/32.0.1 Safari/537.36" version="24.7.8">
  <diagram name="Java" id="qv-ABn_JBrhB7sKEUW2d">
    <mxGraphModel dx="1150" dy="824" grid="1" gridSize="10" guides="1" tooltips="1" connect="1" arrows="1" fold="1" page="1" pageScale="1" pageWidth="850" pageHeight="1100" math="0" shadow="0">
      <root>
        <mxCell id="0" />
        <mxCell id="1" parent="0" />
        <mxCell id="JTPLvLIGinSNK8CGpDtC-1" value="&lt;li style=&quot;caret-color: rgb(0, 0, 0); font-size: 14px;&quot; data-end=&quot;460&quot; data-start=&quot;287&quot;&gt;&lt;strong style=&quot;font-size: 14px;&quot; data-end=&quot;326&quot; data-start=&quot;289&quot;&gt;OOP (Object-Oriented Programming)&lt;/strong&gt;&lt;ul style=&quot;font-size: 14px;&quot; data-end=&quot;460&quot; data-start=&quot;329&quot;&gt;&lt;li style=&quot;font-size: 14px;&quot; data-end=&quot;347&quot; data-start=&quot;329&quot;&gt;Nguyên tắc SOLID&lt;/li&gt;&lt;li style=&quot;font-size: 14px;&quot; data-end=&quot;420&quot; data-start=&quot;350&quot;&gt;Design Patterns (Singleton, Factory, Builder, Strategy, Observer...)&lt;/li&gt;&lt;li style=&quot;font-size: 14px;&quot; data-end=&quot;460&quot; data-start=&quot;423&quot;&gt;So sánh Abstract Class vs Interface&lt;/li&gt;&lt;/ul&gt;&lt;/li&gt;&lt;li style=&quot;caret-color: rgb(0, 0, 0); font-size: 14px;&quot; data-end=&quot;626&quot; data-start=&quot;461&quot;&gt;&lt;strong style=&quot;font-size: 14px;&quot; data-end=&quot;498&quot; data-start=&quot;463&quot;&gt;Java Memory Model &amp;amp; Performance&lt;/strong&gt;&lt;ul style=&quot;font-size: 14px;&quot; data-end=&quot;626&quot; data-start=&quot;501&quot;&gt;&lt;li style=&quot;font-size: 14px;&quot; data-end=&quot;525&quot; data-start=&quot;501&quot;&gt;Heap, Stack, Metaspace&lt;/li&gt;&lt;li style=&quot;font-size: 14px;&quot; data-end=&quot;581&quot; data-start=&quot;528&quot;&gt;Garbage Collection (G1, CMS, ZGC, Serial, Parallel)&lt;/li&gt;&lt;li style=&quot;font-size: 14px;&quot; data-end=&quot;626&quot; data-start=&quot;584&quot;&gt;Memory Leak và cách phát hiện, khắc phục&lt;/li&gt;&lt;/ul&gt;&lt;/li&gt;&lt;li style=&quot;caret-color: rgb(0, 0, 0); font-size: 14px;&quot; data-end=&quot;846&quot; data-start=&quot;627&quot;&gt;&lt;strong style=&quot;font-size: 14px;&quot; data-end=&quot;661&quot; data-start=&quot;629&quot;&gt;Multithreading &amp;amp; Concurrency&lt;/strong&gt;&lt;ul style=&quot;font-size: 14px;&quot; data-end=&quot;846&quot; data-start=&quot;664&quot;&gt;&lt;li style=&quot;font-size: 14px;&quot; data-end=&quot;700&quot; data-start=&quot;664&quot;&gt;Thread, Runnable, Callable, Future&lt;/li&gt;&lt;li style=&quot;font-size: 14px;&quot; data-end=&quot;753&quot; data-start=&quot;703&quot;&gt;Synchronized, Lock, ReadWriteLock, ReentrantLock&lt;/li&gt;&lt;li style=&quot;font-size: 14px;&quot; data-end=&quot;801&quot; data-start=&quot;756&quot;&gt;ThreadPool, ForkJoinPool, CompletableFuture&lt;/li&gt;&lt;li style=&quot;font-size: 14px;&quot; data-end=&quot;846&quot; data-start=&quot;804&quot;&gt;Java Memory Visibility, Volatile, Atomic&lt;/li&gt;&lt;/ul&gt;&lt;/li&gt;&lt;li style=&quot;caret-color: rgb(0, 0, 0); font-size: 14px;&quot; data-end=&quot;979&quot; data-start=&quot;847&quot;&gt;&lt;strong style=&quot;font-size: 14px;&quot; data-end=&quot;869&quot; data-start=&quot;849&quot;&gt;Java 8+ Features&lt;/strong&gt;&lt;ul style=&quot;font-size: 14px;&quot; data-end=&quot;979&quot; data-start=&quot;872&quot;&gt;&lt;li style=&quot;font-size: 14px;&quot; data-end=&quot;914&quot; data-start=&quot;872&quot;&gt;Functional Interface, Lambda, Stream API&lt;/li&gt;&lt;li style=&quot;font-size: 14px;&quot; data-end=&quot;945&quot; data-start=&quot;917&quot;&gt;Optional, Method Reference&lt;/li&gt;&lt;li style=&quot;font-size: 14px;&quot; data-end=&quot;979&quot; data-start=&quot;948&quot;&gt;LocalDate, LocalTime, Instant&lt;/li&gt;&lt;/ul&gt;&lt;/li&gt;&lt;li style=&quot;caret-color: rgb(0, 0, 0); font-size: 14px;&quot; data-end=&quot;1083&quot; data-start=&quot;980&quot;&gt;&lt;strong style=&quot;font-size: 14px;&quot; data-end=&quot;1004&quot; data-start=&quot;982&quot;&gt;Exception Handling&lt;/strong&gt;&lt;ul style=&quot;font-size: 14px;&quot; data-end=&quot;1083&quot; data-start=&quot;1007&quot;&gt;&lt;li style=&quot;font-size: 14px;&quot; data-end=&quot;1039&quot; data-start=&quot;1007&quot;&gt;Checked vs Unchecked Exception&lt;/li&gt;&lt;li style=&quot;font-size: 14px;&quot; data-end=&quot;1060&quot; data-start=&quot;1042&quot;&gt;Custom Exception&lt;/li&gt;&lt;li style=&quot;font-size: 14px;&quot; data-end=&quot;1083&quot; data-start=&quot;1063&quot;&gt;Try-with-resources&lt;/li&gt;&lt;/ul&gt;&lt;/li&gt;" style="rounded=0;whiteSpace=wrap;html=1;align=left;verticalAlign=top;fontSize=14;" vertex="1" parent="1">
          <mxGeometry x="10" y="90" width="560" height="520" as="geometry" />
        </mxCell>
        <mxCell id="JTPLvLIGinSNK8CGpDtC-2" value="&lt;li style=&quot;caret-color: rgb(0, 0, 0); font-size: 14px;&quot; data-end=&quot;382&quot; data-start=&quot;214&quot;&gt;&lt;p style=&quot;font-size: 14px;&quot; data-end=&quot;244&quot; data-start=&quot;216&quot;&gt;&lt;strong style=&quot;font-size: 14px;&quot; data-end=&quot;242&quot; data-start=&quot;216&quot;&gt;OOP &amp;amp; SOLID principles&lt;/strong&gt;&lt;/p&gt;&lt;ul style=&quot;font-size: 14px;&quot; data-end=&quot;382&quot; data-start=&quot;247&quot;&gt;&lt;li style=&quot;font-size: 14px;&quot; data-end=&quot;337&quot; data-start=&quot;247&quot;&gt;Hiểu rõ 4 tính chất của OOP:&lt;span style=&quot;font-size: 14px;&quot; class=&quot;Apple-converted-space&quot;&gt;&amp;nbsp;&lt;/span&gt;&lt;strong style=&quot;font-size: 14px;&quot; data-end=&quot;335&quot; data-start=&quot;278&quot;&gt;Encapsulation, Abstraction, Inheritance, Polymorphism&lt;/strong&gt;&lt;/li&gt;&lt;li style=&quot;font-size: 14px;&quot; data-end=&quot;382&quot; data-start=&quot;340&quot;&gt;Áp dụng&lt;span style=&quot;font-size: 14px;&quot; class=&quot;Apple-converted-space&quot;&gt;&amp;nbsp;&lt;/span&gt;&lt;strong style=&quot;font-size: 14px;&quot; data-end=&quot;359&quot; data-start=&quot;350&quot;&gt;SOLID&lt;/strong&gt;&lt;span style=&quot;font-size: 14px;&quot; class=&quot;Apple-converted-space&quot;&gt;&amp;nbsp;&lt;/span&gt;trong thiết kế code.&lt;/li&gt;&lt;/ul&gt;&lt;/li&gt;&lt;li style=&quot;caret-color: rgb(0, 0, 0); font-size: 14px;&quot; data-end=&quot;699&quot; data-start=&quot;384&quot;&gt;&lt;p style=&quot;font-size: 14px;&quot; data-end=&quot;413&quot; data-start=&quot;386&quot;&gt;&lt;strong style=&quot;font-size: 14px;&quot; data-end=&quot;411&quot; data-start=&quot;386&quot;&gt;Collections Framework&lt;/strong&gt;&lt;/p&gt;&lt;ul style=&quot;font-size: 14px;&quot; data-end=&quot;699&quot; data-start=&quot;416&quot;&gt;&lt;li style=&quot;font-size: 14px;&quot; data-end=&quot;516&quot; data-start=&quot;416&quot;&gt;Sự khác nhau giữa&lt;span style=&quot;font-size: 14px;&quot; class=&quot;Apple-converted-space&quot;&gt;&amp;nbsp;&lt;/span&gt;&lt;code style=&quot;font-size: 14px;&quot; data-end=&quot;447&quot; data-start=&quot;436&quot;&gt;ArrayList&lt;/code&gt;,&lt;span style=&quot;font-size: 14px;&quot; class=&quot;Apple-converted-space&quot;&gt;&amp;nbsp;&lt;/span&gt;&lt;code style=&quot;font-size: 14px;&quot; data-end=&quot;461&quot; data-start=&quot;449&quot;&gt;LinkedList&lt;/code&gt;,&lt;span style=&quot;font-size: 14px;&quot; class=&quot;Apple-converted-space&quot;&gt;&amp;nbsp;&lt;/span&gt;&lt;code style=&quot;font-size: 14px;&quot; data-end=&quot;472&quot; data-start=&quot;463&quot;&gt;HashMap&lt;/code&gt;,&lt;span style=&quot;font-size: 14px;&quot; class=&quot;Apple-converted-space&quot;&gt;&amp;nbsp;&lt;/span&gt;&lt;code style=&quot;font-size: 14px;&quot; data-end=&quot;483&quot; data-start=&quot;474&quot;&gt;TreeMap&lt;/code&gt;,&lt;span style=&quot;font-size: 14px;&quot; class=&quot;Apple-converted-space&quot;&gt;&amp;nbsp;&lt;/span&gt;&lt;code style=&quot;font-size: 14px;&quot; data-end=&quot;494&quot; data-start=&quot;485&quot;&gt;HashSet&lt;/code&gt;,&lt;span style=&quot;font-size: 14px;&quot; class=&quot;Apple-converted-space&quot;&gt;&amp;nbsp;&lt;/span&gt;&lt;code style=&quot;font-size: 14px;&quot; data-end=&quot;511&quot; data-start=&quot;496&quot;&gt;LinkedHashSet&lt;/code&gt;...&lt;/li&gt;&lt;li style=&quot;font-size: 14px;&quot; data-end=&quot;569&quot; data-start=&quot;519&quot;&gt;Khi nào dùng&lt;span style=&quot;font-size: 14px;&quot; class=&quot;Apple-converted-space&quot;&gt;&amp;nbsp;&lt;/span&gt;&lt;code style=&quot;font-size: 14px;&quot; data-end=&quot;543&quot; data-start=&quot;534&quot;&gt;HashMap&lt;/code&gt;&lt;span style=&quot;font-size: 14px;&quot; class=&quot;Apple-converted-space&quot;&gt;&amp;nbsp;&lt;/span&gt;vs&lt;span style=&quot;font-size: 14px;&quot; class=&quot;Apple-converted-space&quot;&gt;&amp;nbsp;&lt;/span&gt;&lt;code style=&quot;font-size: 14px;&quot; data-end=&quot;566&quot; data-start=&quot;547&quot;&gt;ConcurrentHashMap&lt;/code&gt;?&lt;/li&gt;&lt;li style=&quot;font-size: 14px;&quot; data-end=&quot;641&quot; data-start=&quot;572&quot;&gt;Cách hoạt động của&lt;span style=&quot;font-size: 14px;&quot; class=&quot;Apple-converted-space&quot;&gt;&amp;nbsp;&lt;/span&gt;&lt;strong style=&quot;font-size: 14px;&quot; data-end=&quot;604&quot; data-start=&quot;593&quot;&gt;hashing&lt;/strong&gt;&lt;span style=&quot;font-size: 14px;&quot; class=&quot;Apple-converted-space&quot;&gt;&amp;nbsp;&lt;/span&gt;trong&lt;span style=&quot;font-size: 14px;&quot; class=&quot;Apple-converted-space&quot;&gt;&amp;nbsp;&lt;/span&gt;&lt;code style=&quot;font-size: 14px;&quot; data-end=&quot;620&quot; data-start=&quot;611&quot;&gt;HashMap&lt;/code&gt;, vấn đề collision.&lt;/li&gt;&lt;li style=&quot;font-size: 14px;&quot; data-end=&quot;699&quot; data-start=&quot;644&quot;&gt;So sánh&lt;span style=&quot;font-size: 14px;&quot; class=&quot;Apple-converted-space&quot;&gt;&amp;nbsp;&lt;/span&gt;&lt;code style=&quot;font-size: 14px;&quot; data-end=&quot;672&quot; data-start=&quot;654&quot;&gt;synchronizedList&lt;/code&gt;,&lt;span style=&quot;font-size: 14px;&quot; class=&quot;Apple-converted-space&quot;&gt;&amp;nbsp;&lt;/span&gt;&lt;code style=&quot;font-size: 14px;&quot; data-end=&quot;696&quot; data-start=&quot;674&quot;&gt;CopyOnWriteArrayList&lt;/code&gt;.&lt;/li&gt;&lt;/ul&gt;&lt;/li&gt;&lt;li style=&quot;caret-color: rgb(0, 0, 0); font-size: 14px;&quot; data-end=&quot;1086&quot; data-start=&quot;701&quot;&gt;&lt;p style=&quot;font-size: 14px;&quot; data-end=&quot;738&quot; data-start=&quot;703&quot;&gt;&lt;strong style=&quot;font-size: 14px;&quot; data-end=&quot;736&quot; data-start=&quot;703&quot;&gt;Multi-threading &amp;amp; Concurrency&lt;/strong&gt;&lt;/p&gt;&lt;ul style=&quot;font-size: 14px;&quot; data-end=&quot;1086&quot; data-start=&quot;741&quot;&gt;&lt;li style=&quot;font-size: 14px;&quot; data-end=&quot;810&quot; data-start=&quot;741&quot;&gt;Cách tạo thread trong Java:&lt;span style=&quot;font-size: 14px;&quot; class=&quot;Apple-converted-space&quot;&gt;&amp;nbsp;&lt;/span&gt;&lt;code style=&quot;font-size: 14px;&quot; data-end=&quot;779&quot; data-start=&quot;771&quot;&gt;Thread&lt;/code&gt;&lt;span style=&quot;font-size: 14px;&quot; class=&quot;Apple-converted-space&quot;&gt;&amp;nbsp;&lt;/span&gt;vs&lt;span style=&quot;font-size: 14px;&quot; class=&quot;Apple-converted-space&quot;&gt;&amp;nbsp;&lt;/span&gt;&lt;code style=&quot;font-size: 14px;&quot; data-end=&quot;793&quot; data-start=&quot;783&quot;&gt;Runnable&lt;/code&gt;&lt;span style=&quot;font-size: 14px;&quot; class=&quot;Apple-converted-space&quot;&gt;&amp;nbsp;&lt;/span&gt;vs&lt;span style=&quot;font-size: 14px;&quot; class=&quot;Apple-converted-space&quot;&gt;&amp;nbsp;&lt;/span&gt;&lt;code style=&quot;font-size: 14px;&quot; data-end=&quot;807&quot; data-start=&quot;797&quot;&gt;Callable&lt;/code&gt;.&lt;/li&gt;&lt;li style=&quot;font-size: 14px;&quot; data-end=&quot;903&quot; data-start=&quot;813&quot;&gt;Synchronization:&lt;span style=&quot;font-size: 14px;&quot; class=&quot;Apple-converted-space&quot;&gt;&amp;nbsp;&lt;/span&gt;&lt;code style=&quot;font-size: 14px;&quot; data-end=&quot;846&quot; data-start=&quot;832&quot;&gt;synchronized&lt;/code&gt;,&lt;span style=&quot;font-size: 14px;&quot; class=&quot;Apple-converted-space&quot;&gt;&amp;nbsp;&lt;/span&gt;&lt;code style=&quot;font-size: 14px;&quot; data-end=&quot;858&quot; data-start=&quot;848&quot;&gt;volatile&lt;/code&gt;,&lt;span style=&quot;font-size: 14px;&quot; class=&quot;Apple-converted-space&quot;&gt;&amp;nbsp;&lt;/span&gt;&lt;code style=&quot;font-size: 14px;&quot; data-end=&quot;866&quot; data-start=&quot;860&quot;&gt;Lock&lt;/code&gt;,&lt;span style=&quot;font-size: 14px;&quot; class=&quot;Apple-converted-space&quot;&gt;&amp;nbsp;&lt;/span&gt;&lt;code style=&quot;font-size: 14px;&quot; data-end=&quot;883&quot; data-start=&quot;868&quot;&gt;ReentrantLock&lt;/code&gt;,&lt;span style=&quot;font-size: 14px;&quot; class=&quot;Apple-converted-space&quot;&gt;&amp;nbsp;&lt;/span&gt;&lt;code style=&quot;font-size: 14px;&quot; data-end=&quot;900&quot; data-start=&quot;885&quot;&gt;ReadWriteLock&lt;/code&gt;.&lt;/li&gt;&lt;li style=&quot;font-size: 14px;&quot; data-end=&quot;971&quot; data-start=&quot;906&quot;&gt;Executor Framework (&lt;code style=&quot;font-size: 14px;&quot; data-end=&quot;945&quot; data-start=&quot;928&quot;&gt;ExecutorService&lt;/code&gt;,&lt;span style=&quot;font-size: 14px;&quot; class=&quot;Apple-converted-space&quot;&gt;&amp;nbsp;&lt;/span&gt;&lt;code style=&quot;font-size: 14px;&quot; data-end=&quot;967&quot; data-start=&quot;947&quot;&gt;ThreadPoolExecutor&lt;/code&gt;).&lt;/li&gt;&lt;li style=&quot;font-size: 14px;&quot; data-end=&quot;1023&quot; data-start=&quot;974&quot;&gt;Deadlock, livelock, starvation và cách tránh.&lt;/li&gt;&lt;li style=&quot;font-size: 14px;&quot; data-end=&quot;1086&quot; data-start=&quot;1026&quot;&gt;&lt;code style=&quot;font-size: 14px;&quot; data-end=&quot;1042&quot; data-start=&quot;1028&quot;&gt;ForkJoinPool&lt;/code&gt;,&lt;span style=&quot;font-size: 14px;&quot; class=&quot;Apple-converted-space&quot;&gt;&amp;nbsp;&lt;/span&gt;&lt;code style=&quot;font-size: 14px;&quot; data-end=&quot;1063&quot; data-start=&quot;1044&quot;&gt;CompletableFuture&lt;/code&gt;,&lt;span style=&quot;font-size: 14px;&quot; class=&quot;Apple-converted-space&quot;&gt;&amp;nbsp;&lt;/span&gt;&lt;code style=&quot;font-size: 14px;&quot; data-end=&quot;1083&quot; data-start=&quot;1065&quot;&gt;Parallel Streams&lt;/code&gt;.&lt;/li&gt;&lt;/ul&gt;&lt;/li&gt;&lt;li style=&quot;caret-color: rgb(0, 0, 0); font-size: 14px;&quot; data-end=&quot;1194&quot; data-start=&quot;1088&quot;&gt;&lt;p style=&quot;font-size: 14px;&quot; data-end=&quot;1114&quot; data-start=&quot;1090&quot;&gt;&lt;strong style=&quot;font-size: 14px;&quot; data-end=&quot;1112&quot; data-start=&quot;1090&quot;&gt;Exception Handling&lt;/strong&gt;&lt;/p&gt;&lt;ul style=&quot;font-size: 14px;&quot; data-end=&quot;1194&quot; data-start=&quot;1117&quot;&gt;&lt;li style=&quot;font-size: 14px;&quot; data-end=&quot;1152&quot; data-start=&quot;1117&quot;&gt;Checked vs Unchecked Exception.&lt;/li&gt;&lt;li style=&quot;font-size: 14px;&quot; data-end=&quot;1194&quot; data-start=&quot;1155&quot;&gt;Best practices khi xử lý exception.&lt;/li&gt;&lt;/ul&gt;&lt;/li&gt;&lt;li style=&quot;caret-color: rgb(0, 0, 0); font-size: 14px;&quot; data-end=&quot;1395&quot; data-start=&quot;1196&quot;&gt;&lt;p style=&quot;font-size: 14px;&quot; data-end=&quot;1228&quot; data-start=&quot;1198&quot;&gt;&lt;strong style=&quot;font-size: 14px;&quot; data-end=&quot;1226&quot; data-start=&quot;1198&quot;&gt;JVM &amp;amp; Performance Tuning&lt;/strong&gt;&lt;/p&gt;&lt;ul style=&quot;font-size: 14px;&quot; data-end=&quot;1395&quot; data-start=&quot;1231&quot;&gt;&lt;li style=&quot;font-size: 14px;&quot; data-end=&quot;1293&quot; data-start=&quot;1231&quot;&gt;&lt;strong style=&quot;font-size: 14px;&quot; data-end=&quot;1249&quot; data-start=&quot;1233&quot;&gt;Memory Model&lt;/strong&gt;: Heap, Stack, Metaspace, GC, ClassLoader.&lt;/li&gt;&lt;li style=&quot;font-size: 14px;&quot; data-end=&quot;1355&quot; data-start=&quot;1296&quot;&gt;Garbage Collection: G1 GC, ZGC, Serial GC, Parallel GC.&lt;/li&gt;&lt;li style=&quot;font-size: 14px;&quot; data-end=&quot;1395&quot; data-start=&quot;1358&quot;&gt;Cách tối ưu hiệu suất trong Java.&lt;/li&gt;&lt;/ul&gt;&lt;/li&gt;" style="rounded=0;whiteSpace=wrap;html=1;align=left;verticalAlign=top;fontSize=14;" vertex="1" parent="1">
          <mxGeometry x="600" y="90" width="750" height="660" as="geometry" />
        </mxCell>
      </root>
    </mxGraphModel>
  </diagram>
</mxfile>
